<?xml version="1.0" standalone="no"?>
<!DOCTYPE svg PUBLIC "-//W3C//DTD SVG 20010904//EN"
 "http://www.w3.org/TR/2001/REC-SVG-20010904/DTD/svg10.dtd">
<svg version="1.0" xmlns="http://www.w3.org/2000/svg"
 width="1066.000000pt" height="1196.000000pt" viewBox="0 0 1066.000000 1196.000000"
 preserveAspectRatio="xMidYMid meet">

<g transform="translate(0.000000,1196.000000) scale(0.100000,-0.100000)"
fill="black" stroke="none">
<path d="M6603 11953 l-163 -3 0 -935 c0 -514 3 -935 8 -935 33 0 416 -65 509
-86 254 -56 504 -158 689 -280 120 -79 301 -261 382 -383 165 -250 247 -504
259 -796 11 -282 -48 -588 -154 -800 -157 -310 -382 -550 -639 -678 -238 -119
-483 -166 -1174 -222 -173 -14 -396 -34 -495 -45 -130 -14 -294 -21 -590 -25
-371 -6 -424 -9 -560 -31 -1050 -174 -1487 -356 -1940 -809 -573 -572 -818
-1345 -853 -2683 -5 -163 -6 -960 -4 -1769 l4 -1473 1119 0 1118 0 4 1623 c3
1452 5 1639 21 1782 62 582 142 873 290 1063 176 224 455 335 961 382 66 6
435 15 820 20 724 9 738 10 1100 60 1028 143 1598 343 2145 754 124 93 312
275 413 401 721 894 980 2395 622 3596 -116 388 -322 784 -571 1097 -104 131
-356 379 -481 475 -501 381 -1116 593 -1946 672 -142 13 -712 39 -727 33 -3
-2 -78 -4 -167 -5z"/>
<path d="M0 10995 l0 -955 920 0 920 0 2 -2282 c2 -1389 7 -2283 12 -2283 5 0
86 120 180 266 94 147 198 299 230 338 78 96 250 258 380 359 348 273 620 402
1236 583 113 34 215 67 227 75 l23 14 0 1475 0 1475 940 0 940 0 0 945 0 945
-3005 0 -3005 0 0 -955z"/>
</g>
</svg>
